<svg width="40" height="40" viewBox="0 0 40 40" fill="none" xmlns="http://www.w3.org/2000/svg">
<circle cx="20" cy="20" r="20" fill="#8934F5"/>
<path d="M19.6792 12.065C18.7402 11.9725 17.88 11.6106 17.1776 11.0576C14.0903 12.484 12.0194 15.9369 13.4761 19.3632C14.3694 21.4647 15.9368 23.5129 14.706 27.2781C15.9123 26.9157 16.6052 26.0527 16.7848 24.689C18.3886 26.3582 18.9905 29.2086 18.591 33.2403C19.5978 32.4663 20.2885 31.352 20.5336 30.106C21.2541 31.2 21.7312 33.1644 21.965 36C23.3239 32.0888 24.0766 27.993 24.1971 23.8544C24.8074 25.0951 25.5175 26.3952 26.3273 27.7553C26.1658 25.4882 26.3731 23.2102 26.9408 21.0095C28.1715 16.4445 26.2144 12.5749 23.1325 11.0602C22.5229 11.5392 21.7947 11.8746 20.9991 12.0148L21.9334 12.916L20.8577 13.5776L22.2396 22.8165L20.5635 24.3018L18.9159 22.8165L19.8095 13.5474L18.7962 12.9162L19.6792 12.065ZM16.8848 7.271C16.8848 9.07748 18.3499 10.542 20.1569 10.542C21.964 10.542 23.4289 9.07748 23.4289 7.271C23.4289 5.46452 21.964 4 20.1569 4C18.3497 4 16.8848 5.46452 16.8848 7.271Z" fill="white"/>
</svg>
