<svg width="135" height="40" viewBox="0 0 135 40" fill="none" xmlns="http://www.w3.org/2000/svg">
<path d="M60.912 10.96V28H58.2V20.488H49.608V28H46.92V10.96H49.608V18.088H58.2V10.96H60.912ZM64.7559 28V10.96H72.1719C72.9399 10.96 73.6439 11.12 74.2839 11.44C74.9239 11.76 75.4759 12.184 75.9399 12.712C76.4199 13.24 76.7879 13.832 77.0439 14.488C77.3159 15.144 77.4519 15.816 77.4519 16.504C77.4519 17.256 77.3159 17.976 77.0439 18.664C76.7719 19.352 76.3799 19.944 75.8679 20.44C75.3719 20.936 74.7879 21.296 74.1159 21.52L78.1239 28H75.0999L71.4039 22.072H67.4439V28H64.7559ZM67.4439 19.696H72.1479C72.6439 19.696 73.0839 19.552 73.4679 19.264C73.8519 18.976 74.1559 18.592 74.3799 18.112C74.6039 17.616 74.7159 17.08 74.7159 16.504C74.7159 15.912 74.5879 15.384 74.3319 14.92C74.0759 14.44 73.7399 14.056 73.3239 13.768C72.9239 13.48 72.4839 13.336 72.0039 13.336H67.4439V19.696ZM79.4963 19.36C79.4963 18.32 79.6803 17.304 80.0483 16.312C80.4163 15.304 80.9523 14.392 81.6562 13.576C82.3763 12.744 83.2483 12.088 84.2723 11.608C85.2963 11.112 86.4563 10.864 87.7523 10.864C89.2883 10.864 90.6163 11.216 91.7363 11.92C92.8563 12.608 93.6883 13.496 94.2323 14.584L92.1203 16C91.8003 15.312 91.3923 14.768 90.8963 14.368C90.4163 13.968 89.8883 13.688 89.3123 13.528C88.7523 13.368 88.2003 13.288 87.6563 13.288C86.7603 13.288 85.9763 13.472 85.3043 13.84C84.6323 14.192 84.0643 14.664 83.6003 15.256C83.1523 15.848 82.8083 16.512 82.5683 17.248C82.3443 17.984 82.2323 18.72 82.2323 19.456C82.2323 20.272 82.3683 21.064 82.6403 21.832C82.9123 22.584 83.2883 23.256 83.7683 23.848C84.2643 24.424 84.8483 24.88 85.5203 25.216C86.1923 25.552 86.9283 25.72 87.7283 25.72C88.2723 25.72 88.8403 25.624 89.4323 25.432C90.0243 25.24 90.5683 24.944 91.0643 24.544C91.5763 24.128 91.9763 23.584 92.2643 22.912L94.4963 24.184C94.1443 25.032 93.5923 25.752 92.8403 26.344C92.1043 26.936 91.2723 27.384 90.3443 27.688C89.4323 27.992 88.5283 28.144 87.6323 28.144C86.4323 28.144 85.3363 27.896 84.3443 27.4C83.3523 26.888 82.4963 26.216 81.7763 25.384C81.0563 24.536 80.4963 23.592 80.0963 22.552C79.6963 21.496 79.4963 20.432 79.4963 19.36ZM103.703 17.728C102.679 17.744 101.767 17.976 100.967 18.424C100.183 18.872 99.6225 19.504 99.2865 20.32V28H96.6465V15.448H99.0945V18.256C99.5265 17.392 100.095 16.704 100.799 16.192C101.503 15.664 102.247 15.376 103.031 15.328C103.191 15.328 103.319 15.328 103.415 15.328C103.527 15.328 103.623 15.336 103.703 15.352V17.728ZM104.688 24.328C104.688 23.528 104.912 22.832 105.36 22.24C105.824 21.632 106.456 21.168 107.256 20.848C108.056 20.512 108.984 20.344 110.04 20.344C110.6 20.344 111.168 20.384 111.744 20.464C112.336 20.544 112.856 20.672 113.304 20.848V20.056C113.304 19.176 113.04 18.488 112.512 17.992C111.984 17.496 111.224 17.248 110.232 17.248C109.528 17.248 108.864 17.376 108.24 17.632C107.616 17.872 106.952 18.216 106.248 18.664L105.36 16.888C106.192 16.328 107.024 15.912 107.856 15.64C108.704 15.368 109.592 15.232 110.52 15.232C112.2 15.232 113.52 15.68 114.48 16.576C115.456 17.456 115.944 18.712 115.944 20.344V25.024C115.944 25.328 115.992 25.544 116.088 25.672C116.2 25.8 116.384 25.872 116.64 25.888V28C116.4 28.048 116.184 28.08 115.992 28.096C115.8 28.112 115.64 28.12 115.512 28.12C114.952 28.12 114.528 27.984 114.24 27.712C113.952 27.44 113.784 27.12 113.736 26.752L113.664 26.032C113.12 26.736 112.424 27.28 111.576 27.664C110.728 28.048 109.872 28.24 109.008 28.24C108.176 28.24 107.432 28.072 106.776 27.736C106.12 27.384 105.608 26.912 105.24 26.32C104.872 25.728 104.688 25.064 104.688 24.328ZM112.68 25.096C112.872 24.888 113.024 24.68 113.136 24.472C113.248 24.264 113.304 24.08 113.304 23.92V22.48C112.856 22.304 112.384 22.176 111.888 22.096C111.392 22 110.904 21.952 110.424 21.952C109.464 21.952 108.68 22.144 108.072 22.528C107.48 22.912 107.184 23.44 107.184 24.112C107.184 24.48 107.28 24.832 107.472 25.168C107.68 25.504 107.968 25.776 108.336 25.984C108.72 26.192 109.192 26.296 109.752 26.296C110.328 26.296 110.88 26.184 111.408 25.96C111.936 25.736 112.36 25.448 112.68 25.096ZM119.796 28V17.8H118.116V15.76H119.796V15.256C119.796 14.232 119.956 13.344 120.276 12.592C120.612 11.84 121.076 11.264 121.668 10.864C122.276 10.448 122.988 10.24 123.804 10.24C124.316 10.24 124.82 10.312 125.316 10.456C125.812 10.584 126.284 10.768 126.732 11.008L126.156 12.976C125.916 12.816 125.628 12.696 125.292 12.616C124.972 12.52 124.66 12.472 124.356 12.472C123.748 12.472 123.276 12.704 122.94 13.168C122.604 13.632 122.436 14.304 122.436 15.184V15.76H125.652V17.8H122.436V28H119.796ZM134.615 27.352C134.391 27.464 134.111 27.584 133.775 27.712C133.439 27.84 133.055 27.952 132.623 28.048C132.207 28.144 131.775 28.192 131.327 28.192C130.783 28.192 130.279 28.096 129.815 27.904C129.351 27.712 128.975 27.408 128.687 26.992C128.415 26.56 128.279 26.008 128.279 25.336V17.488H126.623V15.448H128.279V11.32H130.919V15.448H133.655V17.488H130.919V24.496C130.951 24.928 131.087 25.248 131.327 25.456C131.583 25.664 131.895 25.768 132.263 25.768C132.631 25.768 132.983 25.704 133.319 25.576C133.655 25.448 133.903 25.344 134.063 25.264L134.615 27.352Z" fill="#8934F5"/>
<circle cx="20" cy="20" r="20" fill="#8934F5"/>
<path d="M19.6792 12.065C18.7402 11.9725 17.88 11.6106 17.1776 11.0576C14.0903 12.484 12.0194 15.9369 13.4761 19.3632C14.3694 21.4647 15.9368 23.5129 14.706 27.2781C15.9123 26.9157 16.6052 26.0527 16.7848 24.689C18.3886 26.3582 18.9905 29.2086 18.591 33.2403C19.5978 32.4663 20.2885 31.352 20.5336 30.106C21.2541 31.2 21.7312 33.1644 21.965 36C23.3239 32.0888 24.0766 27.993 24.1971 23.8544C24.8074 25.0951 25.5175 26.3952 26.3273 27.7553C26.1658 25.4882 26.3731 23.2102 26.9408 21.0095C28.1715 16.4445 26.2144 12.5749 23.1325 11.0602C22.5229 11.5392 21.7947 11.8746 20.9991 12.0148L21.9334 12.916L20.8577 13.5776L22.2396 22.8165L20.5635 24.3018L18.9159 22.8165L19.8095 13.5474L18.7962 12.9162L19.6792 12.065ZM16.8848 7.271C16.8848 9.07748 18.3499 10.542 20.1569 10.542C21.964 10.542 23.4289 9.07748 23.4289 7.271C23.4289 5.46452 21.964 4 20.1569 4C18.3497 4 16.8848 5.46452 16.8848 7.271Z" fill="white"/>
</svg>
