<?xml version="1.0" encoding="utf-8"?>
<!-- Generator: Adobe Illustrator 24.1.1, SVG Export Plug-In . SVG Version: 6.00 Build 0)  -->
<svg version="1.1" id="Layer_1" xmlns="http://www.w3.org/2000/svg" xmlns:xlink="http://www.w3.org/1999/xlink" x="0px" y="0px"
	 viewBox="0 0 363 39" style="enable-background:new 0 0 363 39;" xml:space="preserve">
<style type="text/css">
	.st0{enable-background:new    ;}
	.st1{fill:#1E1A34;}
</style>
<g id="Layer_2_1_">
	<g id="Layer_1-2">
		<g class="st0">
			<path class="st1" d="M71.4,23.9V29H55.2V5.1h6.1v18.8H71.4z"/>
			<path class="st1" d="M91.6,21.4H78.6c0.6,2.2,2.1,3.4,4.3,3.4c1.6,0,3.2-0.6,4.4-1.9l3.1,3c-1.9,2-4.6,3.2-8,3.2
				c-6,0-9.7-3.7-9.7-9.3c0-5.7,3.9-9.4,9.6-9.4C88.8,10.4,92,14.7,91.6,21.4z M85.9,18.2c0-2.2-1.4-3.7-3.5-3.7
				c-2,0-3.4,1.5-3.8,3.7H85.9z"/>
			<path class="st1" d="M98.5,29l-6.9-18.4h6.1l4,13l4-13h5.9L104.6,29H98.5z"/>
			<path class="st1" d="M130.3,21.4h-12.9c0.6,2.2,2.1,3.4,4.3,3.4c1.6,0,3.2-0.6,4.4-1.9l3.1,3c-1.9,2-4.6,3.2-8,3.2
				c-6,0-9.7-3.7-9.7-9.3c0-5.7,3.9-9.4,9.6-9.4C127.5,10.4,130.7,14.7,130.3,21.4z M124.6,18.2c0-2.2-1.4-3.7-3.5-3.7
				c-2,0-3.4,1.5-3.8,3.7H124.6z"/>
			<path class="st1" d="M133.7,29V3.7h5.9V29H133.7z"/>
		</g>
		<g class="st0">
			<path class="st1" d="M152.8,29V5.1h4V29H152.8z"/>
			<path class="st1" d="M193.1,17.7V29h-3.9V18.8c0-2.8-1.6-4.4-4.3-4.4c-3.1,0.1-5,2.5-5,5.7v9H176V18.8c0-2.8-1.6-4.4-4.3-4.4
				c-3.1,0.1-5,2.5-5,5.7v9h-3.9V10.9h3.9v3.5c1.3-2.6,3.6-3.6,6.6-3.6c3.2,0,5.4,1.6,6.3,4.4c1.2-3,3.6-4.4,6.9-4.4
				C190.6,10.7,193.1,13.4,193.1,17.7z"/>
			<path class="st1" d="M228.6,17.7V29h-3.9V18.8c0-2.8-1.6-4.4-4.3-4.4c-3.1,0.1-5,2.5-5,5.7v9h-3.9V18.8c0-2.8-1.6-4.4-4.3-4.4
				c-3.1,0.1-5,2.5-5,5.7v9h-3.9V10.9h3.9v3.5c1.3-2.6,3.6-3.6,6.6-3.6c3.2,0,5.4,1.6,6.3,4.4c1.2-3,3.6-4.4,6.9-4.4
				C226.1,10.7,228.6,13.4,228.6,17.7z"/>
			<path class="st1" d="M238.1,5.7c0,1.4-1,2.3-2.3,2.3c-1.3,0-2.3-1-2.3-2.3c0-1.4,1-2.4,2.3-2.4C237.1,3.3,238.1,4.3,238.1,5.7z
				 M233.9,29V10.9h3.9V29H233.9z"/>
			<path class="st1" d="M259.9,27.2c0,5.2-3.7,8.5-9.4,8.5c-2.8,0-5.3-0.9-7.5-2.4l1.7-2.8c1.7,1.3,3.5,2,5.7,2c3.4,0,5.7-2,5.7-5.1
				V25c-1.2,2-3.3,3.1-6,3.1c-4.9,0-8.2-3.5-8.2-8.8c0-5.1,3.2-8.6,8-8.6c2.8,0,4.9,1.1,6.1,3.1v-2.9h3.9V27.2z M256,19.4
				c0-3.3-2.1-5.6-5.2-5.6c-3.1,0-5.2,2.3-5.3,5.6c0,3.3,2.1,5.6,5.3,5.6C253.9,25,256,22.7,256,19.4z"/>
			<path class="st1" d="M269.3,14.5c1.2-2.5,3.4-3.7,6.3-3.7v3.7c-3.6-0.2-6,1.9-6.3,5V29h-3.9V10.9h3.9V14.5z"/>
			<path class="st1" d="M288.9,26.8c-1.3,1.6-3.4,2.4-6,2.4c-3.9,0-6.4-2.4-6.4-5.6c0-3.3,2.5-5.4,6.8-5.4h5.5v-0.5
				c0-2.3-1.5-3.6-4.3-3.6c-1.7,0-3.5,0.6-5.3,1.8l-1.6-2.7c2.5-1.5,4.4-2.3,7.8-2.3c4.7,0,7.3,2.4,7.3,6.4l0,11.9h-3.8V26.8z
				 M288.9,22.6v-1.7H284c-2.6,0-3.7,0.7-3.7,2.4c0,1.6,1.3,2.7,3.5,2.7C286.5,26,288.7,24.6,288.9,22.6z"/>
			<path class="st1" d="M308.3,27.8c-1.4,0.9-2.9,1.3-4.5,1.3c-2.7,0-5.1-1.6-5.1-5.3v-9.4h-2.6v-2.9h2.6v-5h3.9v5h5.3v2.9h-5.3v8.7
				c0,1.9,0.7,2.5,1.9,2.5c0.8,0,1.7-0.3,2.7-0.8L308.3,27.8z"/>
			<path class="st1" d="M316.1,5.7c0,1.4-1,2.3-2.3,2.3c-1.3,0-2.3-1-2.3-2.3c0-1.4,1-2.4,2.3-2.4C315.1,3.3,316.1,4.3,316.1,5.7z
				 M311.9,29V10.9h3.9V29H311.9z"/>
			<path class="st1" d="M338.7,19.9c0,5.4-3.8,9.2-9.4,9.2c-5.6,0-9.5-3.7-9.5-9.2c0-5.5,3.8-9.2,9.5-9.2
				C334.9,10.7,338.7,14.4,338.7,19.9z M323.8,19.9c0,3.5,2.3,5.9,5.6,5.9c3.2,0,5.5-2.4,5.5-5.9c0-3.5-2.3-5.9-5.5-5.9
				C326,14.1,323.8,16.5,323.8,19.9z"/>
			<path class="st1" d="M360.2,17.7V29h-3.9V18.8c0-2.7-1.6-4.4-4.4-4.4c-3,0-4.9,2.1-5.1,4.9V29h-3.9V10.9h3.9v3.5
				c1.3-2.5,3.6-3.6,6.7-3.6C357.6,10.7,360.2,13.4,360.2,17.7z"/>
		</g>
		<rect y="21.7" class="st1" width="25.1" height="6.5"/>
		<rect x="9.6" y="13.6" class="st1" width="25.1" height="6.5"/>
		<rect x="19.3" y="5.5" class="st1" width="25.1" height="6.5"/>
	</g>
</g>
</svg>
